<svg xmlns="http://www.w3.org/2000/svg" viewBox="0 0 860 352" width="860" height="352">
  <defs>
    <style>
      @import url('https://fonts.googleapis.com/css2?family=Fira+Code:wght@400;500&amp;display=swap');

      .terminal-bg  { fill: #0d0d0d; }
      .window-bar   { fill: #1a1a1a; }
      .btn-red      { fill: #ff5f57; }
      .btn-yellow   { fill: #ffbd2e; }
      .btn-green    { fill: #28c840; }
      .title-text   { fill: #555; font-family: 'Fira Code', monospace; font-size: 12px; }
      .prompt       { fill: #00FF41; font-family: 'Fira Code', monospace; font-size: 13.5px; }
      .dim          { fill: #4a8f5a; font-family: 'Fira Code', monospace; font-size: 13.5px; }
      .white        { fill: #cccccc; font-family: 'Fira Code', monospace; font-size: 13.5px; }

      /* ── Staggered line fade-ins ──────────────────────────────── */
      .l1  { opacity:0; animation: fi .3s ease forwards  .20s; }
      .l2  { opacity:0; animation: fi .3s ease forwards  .75s; }
      .l3  { opacity:0; animation: fi .3s ease forwards 1.30s; }
      .l4  { opacity:0; animation: fi .3s ease forwards 1.80s; }
      .l5  { opacity:0; animation: fi .3s ease forwards 2.20s; }
      .l6  { opacity:0; animation: fi .3s ease forwards 2.60s; }
      .l7  { opacity:0; animation: fi .3s ease forwards 3.00s; }
      .l8  { opacity:0; animation: fi .2s ease forwards 3.40s; }
      .l9  { opacity:0; animation: fi .3s ease forwards 7.00s; }
      .l10 { opacity:0; animation: fi .2s ease forwards 7.40s; }

      /*
       * ── Block reveal via clipPath width animation ───────────────
       *    39 portrait blocks: 14w × 28h, gap=5px, pitch=19px
       *    Block area: x=44 → x=780  (736px total)
       *    delay: 3.60s   duration: 3.20s   finishes: t=6.80s
       */
      .block-mask {
        animation: revealBlocks 3.20s ease-out forwards 3.60s;
      }
      @keyframes revealBlocks {
        from { width: 0px;   }
        to   { width: 736px; }
      }

      /*
       * ── Percentage counter ────────────────────────────────────
       *    Interval = 3.20s / 4 = 0.80s per step
       *    0%   → 3.60s  |  25% → 4.40s
       *    50%  → 5.20s  |  75% → 6.00s
       *    100% → 6.80s  (same frame blocks complete)
       */
      .pct  { opacity:0; }
      .p0   { animation: cntFlash .80s linear 3.60s both; }
      .p25  { animation: cntFlash .80s linear 4.40s both; }
      .p50  { animation: cntFlash .80s linear 5.20s both; }
      .p75  { animation: cntFlash .80s linear 6.00s both; }
      .p100 { animation: cntFinal .10s linear 6.80s forwards; }

      /* ── Blinking cursor ─────────────────────────────────────── */
      .cursor-blink {
        fill: #00FF41;
        animation: blink 1s step-end infinite 7.40s;
        opacity: 0;
      }

      /* ── Keyframes ───────────────────────────────────────────── */
      @keyframes fi {
        from { opacity:0; transform: translateY(2px); }
        to   { opacity:1; transform: translateY(0);   }
      }
      @keyframes cntFlash {
        0%   { opacity:0; }
        8%   { opacity:1; }
        88%  { opacity:1; }
        100% { opacity:0; }
      }
      @keyframes cntFinal {
        from { opacity:0; }
        to   { opacity:1; }
      }
      @keyframes blink {
        0%,100% { opacity:1; }
        50%      { opacity:0; }
      }
    </style>

    <!-- Border glow -->
    <filter id="borderGlow">
      <feGaussianBlur in="SourceGraphic" stdDeviation="2" result="blur"/>
      <feColorMatrix in="blur" type="matrix"
        values="0 0 0 0 0  0 1 0 0 0  0 0 0 0 0  0 0 0 0.5 0" result="g"/>
      <feMerge><feMergeNode in="g"/><feMergeNode in="SourceGraphic"/></feMerge>
    </filter>

    <!--
      Block reveal clip path.
      x=44 y=241 — aligns exactly with block top-left corner.
      height=28   — exact block height.
      width: 0 → 736px via .block-mask animation.
    -->
    <clipPath id="blockClip">
      <rect x="44" y="239" width="0" height="20" class="block-mask"/>
    </clipPath>
  </defs>

  <!-- ── Window shell ─────────────────────────────────────────── -->
  <rect x="10" y="10" width="840" height="332" rx="12" ry="12"
        class="terminal-bg" filter="url(#borderGlow)"/>
  <rect x="10" y="10" width="840" height="332" rx="12" ry="12"
        fill="none" stroke="#00FF41" stroke-width="0.8" stroke-opacity="0.35"/>

  <!-- Title bar -->
  <rect x="10" y="10" width="840" height="36" rx="12" ry="12" class="window-bar"/>
  <rect x="10" y="28"  width="840" height="18" class="window-bar"/>
  <circle cx="36" cy="28" r="7" class="btn-red"/>
  <circle cx="58" cy="28" r="7" class="btn-yellow"/>
  <circle cx="80" cy="28" r="7" class="btn-green"/>
  <text x="430" y="33" text-anchor="middle" class="title-text">
    ullas23@github — bash — 80×24
  </text>
  <line x1="10" y1="46" x2="850" y2="46" stroke="#2a2a2a" stroke-width="1"/>

  <!-- ── Line 1: ssh command ──────────────────────────────────── -->
  <g class="l1">
    <text x="32" y="82" class="prompt">❯ </text>
    <text x="52" y="82" class="white">ssh ullas23@github</text>
  </g>

  <!-- ── Line 2: Password ─────────────────────────────────────── -->
  <g class="l2">
    <text x="32" y="106" class="dim">Password:</text>
    <text x="118" y="106" class="white">************</text>
  </g>

  <!-- ── Line 3: Access Granted ───────────────────────────────── -->
  <g class="l3">
    <text x="32" y="130" class="prompt" font-weight="600">Access Granted.</text>
  </g>

  <!-- ── Line 4: Initializing Security Workspace ──────────────── -->
  <g class="l4">
    <text x="32" y="155" class="dim">Initializing Security Workspace...</text>
  </g>

  <!-- ── Line 5: Loading Intelligence ────────────────────────── -->
  <g class="l5">
    <text x="32" y="176" class="dim">Loading Intelligence...</text>
  </g>

  <!-- ── Line 6: Loading Operational Assets ──────────────────── -->
  <g class="l6">
    <text x="32" y="197" class="dim">Loading Operational Assets...</text>
  </g>

  <!-- ── Line 7: Initializing Boot Sequence ──────────────────── -->
  <g class="l7">
    <text x="32" y="218" class="dim">Initializing Boot Sequence...</text>
  </g>

  <!--
    ── Line 8: Terminal block progress bar ──────────────────────

    Blocks : 39 portrait blocks  (14w × 28h)
             gap = 5px,  pitch = 19px
             Block i: x = 44 + i×19,  y = 241
             Last block ends: x = 766 + 14 = 780

    Brackets: SVG path strokes — exact same height as blocks (28px)
              [ left path:  M42,241 → 34,241 → 34,269 → 42,269
              ] right path: M783,241 → 791,241 → 791,269 → 783,269

    Empty state: no background slots — space is invisible before fill.

    Filled blocks: clipped by #blockClip (width 0→736px over 3.20s)
  -->
  <g class="l8">

    <!-- Left bracket [ — exact block height, SVG path stroke -->
    <path d="M42,239 L34,239 L34,259 L42,259"
          fill="none" stroke="#00FF41" stroke-width="2" stroke-linecap="square"/>

    <!-- Right bracket ] — mirrors left bracket -->
    <path d="M783,239 L791,239 L791,259 L783,259"
          fill="none" stroke="#00FF41" stroke-width="2" stroke-linecap="square"/>

    <!-- Portrait blocks revealed left-to-right by clipPath animation -->
    <g clip-path="url(#blockClip)">
      <!-- pitch=19: x = 44 + i*19  for i = 0..38 -->
      <rect x="44"  y="239" width="14" height="20" rx="1" fill="#d4d4d4"/>
      <rect x="63"  y="239" width="14" height="20" rx="1" fill="#d4d4d4"/>
      <rect x="82"  y="239" width="14" height="20" rx="1" fill="#d4d4d4"/>
      <rect x="101" y="239" width="14" height="20" rx="1" fill="#d4d4d4"/>
      <rect x="120" y="239" width="14" height="20" rx="1" fill="#d4d4d4"/>
      <rect x="139" y="239" width="14" height="20" rx="1" fill="#d4d4d4"/>
      <rect x="158" y="239" width="14" height="20" rx="1" fill="#d4d4d4"/>
      <rect x="177" y="239" width="14" height="20" rx="1" fill="#d4d4d4"/>
      <rect x="196" y="239" width="14" height="20" rx="1" fill="#d4d4d4"/>
      <rect x="215" y="239" width="14" height="20" rx="1" fill="#d4d4d4"/>
      <rect x="234" y="239" width="14" height="20" rx="1" fill="#d4d4d4"/>
      <rect x="253" y="239" width="14" height="20" rx="1" fill="#d4d4d4"/>
      <rect x="272" y="239" width="14" height="20" rx="1" fill="#d4d4d4"/>
      <rect x="291" y="239" width="14" height="20" rx="1" fill="#d4d4d4"/>
      <rect x="310" y="239" width="14" height="20" rx="1" fill="#d4d4d4"/>
      <rect x="329" y="239" width="14" height="20" rx="1" fill="#d4d4d4"/>
      <rect x="348" y="239" width="14" height="20" rx="1" fill="#d4d4d4"/>
      <rect x="367" y="239" width="14" height="20" rx="1" fill="#d4d4d4"/>
      <rect x="386" y="239" width="14" height="20" rx="1" fill="#d4d4d4"/>
      <rect x="405" y="239" width="14" height="20" rx="1" fill="#d4d4d4"/>
      <rect x="424" y="239" width="14" height="20" rx="1" fill="#d4d4d4"/>
      <rect x="443" y="239" width="14" height="20" rx="1" fill="#d4d4d4"/>
      <rect x="462" y="239" width="14" height="20" rx="1" fill="#d4d4d4"/>
      <rect x="481" y="239" width="14" height="20" rx="1" fill="#d4d4d4"/>
      <rect x="500" y="239" width="14" height="20" rx="1" fill="#d4d4d4"/>
      <rect x="519" y="239" width="14" height="20" rx="1" fill="#d4d4d4"/>
      <rect x="538" y="239" width="14" height="20" rx="1" fill="#d4d4d4"/>
      <rect x="557" y="239" width="14" height="20" rx="1" fill="#d4d4d4"/>
      <rect x="576" y="239" width="14" height="20" rx="1" fill="#d4d4d4"/>
      <rect x="595" y="239" width="14" height="20" rx="1" fill="#d4d4d4"/>
      <rect x="614" y="239" width="14" height="20" rx="1" fill="#d4d4d4"/>
      <rect x="633" y="239" width="14" height="20" rx="1" fill="#d4d4d4"/>
      <rect x="652" y="239" width="14" height="20" rx="1" fill="#d4d4d4"/>
      <rect x="671" y="239" width="14" height="20" rx="1" fill="#d4d4d4"/>
      <rect x="690" y="239" width="14" height="20" rx="1" fill="#d4d4d4"/>
      <rect x="709" y="239" width="14" height="20" rx="1" fill="#d4d4d4"/>
      <rect x="728" y="239" width="14" height="20" rx="1" fill="#d4d4d4"/>
      <rect x="747" y="239" width="14" height="20" rx="1" fill="#d4d4d4"/>
      <rect x="766" y="239" width="14" height="20" rx="1" fill="#d4d4d4"/>
    </g>

    <!-- Percentage counter — stacked, only one visible at a time -->
    <text x="806" y="254" class="prompt pct p0"   font-size="13" font-weight="700">  0%</text>
    <text x="806" y="254" class="prompt pct p25"  font-size="13" font-weight="700"> 25%</text>
    <text x="806" y="254" class="prompt pct p50"  font-size="13" font-weight="700"> 50%</text>
    <text x="806" y="254" class="prompt pct p75"  font-size="13" font-weight="700"> 75%</text>
    <text x="806" y="254" class="prompt pct p100" font-size="13" font-weight="700">100%</text>
  </g>

  <!-- ── Line 9: Successful. ──────────────────────────────────── -->
  <g class="l9">
    <text x="32" y="283" class="prompt" font-weight="600">Successful.</text>
  </g>

  <!-- ── Line 10: Prompt + blinking cursor ────────────────────── -->
  <g class="l10">
    <text x="32" y="313" class="prompt">ullas23@github:~$ </text>
  </g>
  <rect x="208" y="299" width="9" height="16" rx="1" class="cursor-blink"/>
</svg>
